DBRep_DrawableShape

CASCADE Topology V3, (c) Open Cascade
Locations 2
1
              1              -0               0              -0 
              0               1               0               0 
             -0               0               1              -0 
2  1 -1 0
Curve2ds 0
Curves 12
1 -0.00029999999999999997 -0.00031 -0.00050000000000000001 0 0 1 
1 -0.00029999999999999997 -0.00031 0 0 1 0 
1 -0.00029999999999999997 0.00048582505828797016 -0.00050000000000000001 0 0 1 
1 -0.00029999999999999997 -0.00031 -0.00050000000000000001 0 1 0 
1 0.0046567014720324696 -0.00031 -0.00050000000000000001 0 0 1 
1 0.0046567014720324696 -0.00031 0 0 1 0 
1 0.0046567014720324696 0.00048582505828797016 -0.00050000000000000001 0 0 1 
1 0.0046567014720324696 -0.00031 -0.00050000000000000001 0 1 0 
1 -0.00029999999999999997 -0.00031 -0.00050000000000000001 1 0 0 
1 -0.00029999999999999997 -0.00031 0 1 0 0 
1 -0.00029999999999999997 0.00048582505828797016 -0.00050000000000000001 1 0 0 
1 -0.00029999999999999997 0.00048582505828797016 0 1 0 0 
Polygon3D 0
PolygonOnTriangulations 24
2 1 2 
p 1.0004e-06 1 0 0.0005 
2 1 3 
p 1.0004e-06 1 0 0.0005 
2 2 4 
p 1.59205011657594e-06 1 0 0.00079582505828797 
2 1 2 
p 1.59205011657594e-06 1 0 0.00079582505828797 
2 3 4 
p 1.0004e-06 1 0 0.0005 
2 1 3 
p 1.0004e-06 1 0 0.0005 
2 1 3 
p 1.59205011657594e-06 1 0 0.00079582505828797 
2 1 2 
p 1.59205011657594e-06 1 0 0.00079582505828797 
2 1 2 
p 1.0004e-06 1 0 0.0005 
2 2 4 
p 1.0004e-06 1 0 0.0005 
2 2 4 
p 1.59205011657594e-06 1 0 0.00079582505828797 
2 3 4 
p 1.59205011657594e-06 1 0 0.00079582505828797 
2 3 4 
p 1.0004e-06 1 0 0.0005 
2 2 4 
p 1.0004e-06 1 0 0.0005 
2 1 3 
p 1.59205011657594e-06 1 0 0.00079582505828797 
2 3 4 
p 1.59205011657594e-06 1 0 0.00079582505828797 
2 1 2 
p 2.47845073601624e-06 1 0 0.00495670147203247 
2 1 3 
p 2.47845073601624e-06 1 0 0.00495670147203247 
2 3 4 
p 2.47845073601624e-06 1 0 0.00495670147203247 
2 1 3 
p 2.47845073601624e-06 1 0 0.00495670147203247 
2 1 2 
p 2.47845073601624e-06 1 0 0.00495670147203247 
2 2 4 
p 2.47845073601624e-06 1 0 0.00495670147203247 
2 3 4 
p 2.47845073601624e-06 1 0 0.00495670147203247 
2 2 4 
p 2.47845073601624e-06 1 0 0.00495670147203247 
Surfaces 6
1 -0.00029999999999999997 -0.00031 -0.00050000000000000001 1 0 0 0 0 1 0 -1 0 
1 0.0046567014720324696 -0.00031 -0.00050000000000000001 1 0 0 0 0 1 0 -1 0 
1 -0.00029999999999999997 -0.00031 -0.00050000000000000001 0 1 0 0 0 1 1 0 0 
1 -0.00029999999999999997 0.00048582505828797016 -0.00050000000000000001 0 1 0 0 0 1 1 0 0 
1 -0.00029999999999999997 -0.00031 -0.00050000000000000001 0 0 1 1 0 0 0 1 0 
1 -0.00029999999999999997 -0.00031 0 0 0 1 1 0 0 0 1 0 
Triangulations 6
4 2 1 0 5.78964213899847e-20
-0.0003 -0.00031 -0.0005 -0.0003 -0.00031 0 -0.0003 0.00048582505828797 -0.0005 -0.0003 0.00048582505828797 0 0 0 0.0005 0 0 -0.00079582505828797 0.0005 -0.00079582505828797 2 1 3 2 3 4 
4 2 1 0 5.42101086242752e-20
-0.0003 -0.00031 -0.0005 0.00465670147203247 -0.00031 -0.0005 -0.0003 -0.00031 0 0.00465670147203247 -0.00031 0 0 0 0 0.00495670147203247 0.0005 0 0.0005 0.00495670147203247 4 2 1 4 1 3 
4 2 1 0 2.71050543121376e-20
-0.0003 -0.00031 0 -0.0003 0.00048582505828797 0 0.00465670147203247 -0.00031 0 0.00465670147203247 0.00048582505828797 0 0 0 0 0.00079582505828797 0.00495670147203247 0 0.00495670147203247 0.00079582505828797 4 2 1 4 1 3 
4 2 1 0 5.42101086242752e-20
-0.0003 0.00048582505828797 -0.0005 0.00465670147203247 0.00048582505828797 -0.0005 -0.0003 0.00048582505828797 0 0.00465670147203247 0.00048582505828797 0 0 0 0 0.00495670147203247 0.0005 0 0.0005 0.00495670147203247 4 2 1 4 1 3 
4 2 1 0 2.71050543121376e-20
-0.0003 -0.00031 -0.0005 -0.0003 0.00048582505828797 -0.0005 0.00465670147203247 -0.00031 -0.0005 0.00465670147203247 0.00048582505828797 -0.0005 0 0 0 0.00079582505828797 0.00495670147203247 0 0.00495670147203247 0.00079582505828797 4 2 1 4 1 3 
4 2 1 0 5.78964213899847e-20
0.00465670147203247 -0.00031 -0.0005 0.00465670147203247 -0.00031 0 0.00465670147203247 0.00048582505828797 -0.0005 0.00465670147203247 0.00048582505828797 0 0 0 0.0005 0 0 -0.00079582505828797 0.0005 -0.00079582505828797 2 1 3 2 3 4 

TShapes 34
Ve
1e-07
-0.0003 -0.00031 0
0 0

0101101
*
Ve
1e-07
-0.0003 -0.00031 -0.0005
0 0

0101101
*
Ed
 1e-07 1 1 0
1  1 0 0 0.0005
6  1 1 0
6  2 2 0
0

0101000
-34 2 +33 2 *
Ve
1e-07
-0.0003 0.00048582505828797 0
0 0

0101101
*
Ed
 1e-07 1 1 0
1  2 0 0 0.00079582505828797
6  3 1 0
6  4 3 0
0

0101000
-31 2 +34 2 *
Ve
1e-07
-0.0003 0.00048582505828797 -0.0005
0 0

0101101
*
Ed
 1e-07 1 1 0
1  3 0 0 0.0005
6  5 1 0
6  6 4 0
0

0101000
-31 2 +29 2 *
Ed
 1e-07 1 1 0
1  4 0 0 0.00079582505828797
6  7 1 0
6  8 5 0
0

0101000
-29 2 +33 2 *
Wi

0101100
-32 0 -30 0 +28 0 +27 0 *
Fa
0  1e-07 1 0
2  1
0101000
+26 0 *
Ve
1e-07
0.00465670147203247 -0.00031 0
0 0

0101101
*
Ve
1e-07
0.00465670147203247 -0.00031 -0.0005
0 0

0101101
*
Ed
 1e-07 1 1 0
1  5 0 0 0.0005
6  9 6 0
6  10 2 0
0

0101000
-24 2 +23 2 *
Ve
1e-07
0.00465670147203247 0.00048582505828797 0
0 0

0101101
*
Ed
 1e-07 1 1 0
1  6 0 0 0.00079582505828797
6  11 6 0
6  12 3 0
0

0101000
-21 2 +24 2 *
Ve
1e-07
0.00465670147203247 0.00048582505828797 -0.0005
0 0

0101101
*
Ed
 1e-07 1 1 0
1  7 0 0 0.0005
6  13 6 0
6  14 4 0
0

0101000
-21 2 +19 2 *
Ed
 1e-07 1 1 0
1  8 0 0 0.00079582505828797
6  15 6 0
6  16 5 0
0

0101000
-19 2 +23 2 *
Wi

0101100
-22 0 -20 0 +18 0 +17 0 *
Fa
0  1e-07 2 0
2  6
0101000
+16 0 *
Ed
 1e-07 1 1 0
1  9 0 0 0.00495670147203247
6  17 2 0
6  18 5 0
0

0101000
-23 2 +33 2 *
Ed
 1e-07 1 1 0
1  10 0 0 0.00495670147203247
6  19 2 0
6  20 3 0
0

0101000
-24 2 +34 2 *
Wi

0101100
-14 0 -22 0 +13 0 +32 0 *
Fa
0  1e-07 3 0
2  2
0101000
+12 0 *
Ed
 1e-07 1 1 0
1  11 0 0 0.00495670147203247
6  21 4 0
6  22 5 0
0

0101000
-19 2 +29 2 *
Ed
 1e-07 1 1 0
1  12 0 0 0.00495670147203247
6  23 4 0
6  24 3 0
0

0101000
-21 2 +31 2 *
Wi

0101100
-10 0 -18 0 +9 0 +28 0 *
Fa
0  1e-07 4 0
2  4
0101000
+8 0 *
Wi

0101100
-27 0 -10 0 +17 0 +14 0 *
Fa
0  1e-07 5 0
2  5
0101000
+6 0 *
Wi

0101100
-30 0 -9 0 +20 0 +13 0 *
Fa
0  1e-07 6 0
2  3
0101000
+4 0 *
Sh

0101100
-25 0 +15 0 -11 0 +7 0 -5 0 +3 0 *
So

0100000
+2 0 *

+1 1 